inDegrees=yes
name=ik_appendData_wink_l
DataType=double
version=3
OpenSimVersion=4.5
endheader
time	pelvis_tilt	pelvis_list	pelvis_rotation	pelvis_tx	pelvis_ty	pelvis_tz	hip_flexion_r	hip_adduction_r	hip_rotation_r	knee_angle_r	knee_angle_r_beta	ankle_angle_r	subtalar_angle_r	mtp_angle_r	hip_flexion_l	hip_adduction_l	hip_rotation_l	knee_angle_l	knee_angle_l_beta	ankle_angle_l	subtalar_angle_l	mtp_angle_l	lumbar_extension	lumbar_bending	lumbar_rotation	arm_flex_r	arm_add_r	arm_rot_r	elbow_flex_r	pro_sup_r	wrist_flex_r	wrist_dev_r	arm_flex_l	arm_add_l	arm_rot_l	elbow_flex_l	pro_sup_l	wrist_flex_l	wrist_dev_l
225	-0.1765867794506214	89.65318735025907	0.1763541114044263	0	0.9399999999999999	0	44.98292910095063	-10.00001723200124	0	59.99720114929796	1.047148702036575	-5.000000349467851	0	0	44.98292910095063	-10.00001723200124	0	59.99720114929796	1.047148702036575	-5.000000349467851	0	0	-0.001191206433167354	0.3462434821659883	0.002427602237914108	0	-14.58453041954743	0	75.04906240952897	44.99991673018769	0	0	-6.266084913282481	6.460618529154822	40.10445031486066	14.60737212921542	44.99991673018769	0	0
226	-0.2054933802232956	89.65063880116006	0.1988186430624391	0	0.9399999999999999	0	44.98356080593352	-10.00001578237224	0	59.99730975955814	1.047150597643217	-5.000000300408539	0	0	44.98356080593352	-10.00001578237224	0	59.99730975955814	1.047150597643217	-5.000000300408539	0	0	0.004505911854725969	0.3639605560695211	0.00177710617111232	0	-14.59399005407704	0	75.04725339090668	44.9999228082495	0	0	-14.9084489198297	10.17766624992569	46.91423250658861	25.55640219465769	44.9999228082495	0	0
227	-0.1767281003174959	89.66169285396458	0.1738587184756297	0	0.9399999999999999	0	44.9843672138243	-10.00001402379635	0	59.99744739962548	1.047152999915575	-5.000000241971037	0	0	44.9843672138243	-10.00001402379635	0	59.99744739962548	1.047152999915575	-5.000000241971037	0	0	-0.008598583779812022	0.3419058071110529	0.005752342058441679	0	-14.6062114415691	0	75.0449440739451	44.99993028230053	0	0	-20.74987763134563	11.23895354491235	55.88470587933972	43.48891951629946	44.99993028230053	0	0
228	-0.4555948197964067	89.65327666799432	0.4569060721253714	0	0.9399999999999999	0	44.98502863898862	-10.00001271790615	0	59.99756225669265	1.047155004549566	-5.000000199804394	0	0	44.98502863898862	-10.00001271790615	0	59.99756225669265	1.047155004549566	-5.000000199804394	0	0	-0.0007468511369643412	0.3495936574375902	-0.003793209745530529	0	-14.6165625623553	0	75.04304994477506	44.99993596228606	0	0	-36.67924014926907	19.87755223629129	61.01309284592417	53.95070669136304	44.99993596228606	0	0
229	-0.0768089859922395	89.65756119043962	0.07473347121332831	0	0.9399999999999999	0	44.98554641433482	-10.00001171436424	0	59.99765173236189	1.047156566194595	-5.000000167506212	0	0	44.98554641433482	-10.00001171436424	0	59.99765173236189	1.047156566194595	-5.000000167506212	0	0	-0.003150219289162521	0.3321850462173105	0.004166707237664289	0	-14.62473403448993	0	75.04156718678945	44.99994034152581	0	0	-64.23560336627126	34.19322444595202	65.40413501137652	55.42049542270785	44.99994034152581	0	0
230	-0.1528940636322351	89.65344518100285	0.1479410584661364	0	0.9399999999999999	0	44.98562440510005	-10.0000115750589	0	59.9976650811021	1.047156799174062	-5.000000163169361	0	0	44.98562440510005	-10.0000115750589	0	59.9976650811021	1.047156799174062	-5.000000163169361	0	0	-0.008806133565592567	0.3469649377183911	-0.01190759127824542	0	-14.62598519017457	0	75.04134384389117	44.99994096376546	0	0	-76.35813169733429	34.67858926960022	71.70024801553831	56.35643183212185	44.99994096376546	0	0
231	0.1307241517167923	89.65621201455644	-0.1348780845184646	0	0.9399999999999999	0	44.98662369460121	-10.00000992757067	0	59.99783954093878	1.047159844072625	-5.000000112575763	0	0	44.98662369460121	-10.00000992757067	0	59.99783954093878	1.047159844072625	-5.000000112575763	0	0	-0.0002764018659348364	0.3369532268217399	-0.003627303663894892	0	-14.64249840353954	0	75.03848216837531	44.99994843372365	0	0	-53.66223528854233	23.72015306462754	71.66170850725815	58.13605989980151	44.99994843372365	0	0
232	0.6957086031835344	89.65547020452115	-0.6962601724659945	0	0.9399999999999999	0	44.98771986982472	-10.00000829040643	0	59.99803109222023	1.047163187273173	-5.000000063488966	0	0	44.98771986982472	-10.00000829040643	0	59.99803109222023	1.047163187273173	-5.000000063488966	0	0	-0.003364552718783627	0.3409647225323041	-0.003891053482433681	0	-14.66129471313754	0	75.03534303935248	44.9999560105277	0	0	-25.08246250593032	15.13952657128507	69.25018182415135	55.05506094998049	44.9999560105277	0	0
